HIERARCHY
ROOT hip
{
  OFFSET 0 0 0
  CHANNELS 6 Xposition Yposition Zposition Zrotation Yrotation Xrotation
  JOINT abdomen
  {
    OFFSET 0 20.6881 -0.73152
    CHANNELS 3 Zrotation Xrotation Yrotation
    JOINT chest
    {
      OFFSET 0 11.7043 -0.48768
      CHANNELS 3 Zrotation Xrotation Yrotation
      JOINT neck
      {
        OFFSET 0 22.1894 -2.19456
        CHANNELS 3 Zrotation Xrotation Yrotation
        JOINT head
        {
          OFFSET -0.24384 7.07133 1.2192
          CHANNELS 3 Zrotation Xrotation Yrotation
          JOINT leftEye
          {
            OFFSET 4.14528 8.04674 8.04672
            CHANNELS 3 Zrotation Xrotation Yrotation
            End Site
            {
              OFFSET 1 0 0
            }
          }
          JOINT rightEye
          {
            OFFSET -3.6576 8.04674 8.04672
            CHANNELS 3 Zrotation Xrotation Yrotation
            End Site
            {
              OFFSET 1 0 0
            }
          }
        }
      }
      JOINT rCollar
      {
        OFFSET -2.68224 19.2634 -4.8768
        CHANNELS 3 Zrotation Xrotation Yrotation
        JOINT rShldr
        {
          OFFSET -8.77824 -1.95073 1.46304
          CHANNELS 3 Zrotation Xrotation Yrotation
          JOINT rForeArm
          {
            OFFSET -28.1742 -1.7115 0.48768
            CHANNELS 3 Zrotation Xrotation Yrotation
            JOINT rHand
            {
              OFFSET -22.5879 0.773209 7.07136
              CHANNELS 3 Zrotation Xrotation Yrotation
              JOINT rThumb1
              {
                OFFSET -1.2192 -0.487915 3.41376
                CHANNELS 3 Zrotation Xrotation Yrotation
                JOINT rThumb2
                {
                  OFFSET -3.37035 -0.52449 3.41376
                  CHANNELS 3 Zrotation Xrotation Yrotation
                  End Site
                  {
                    OFFSET -1.78271 -1.18214 1.43049
                  }
                }
              }
              JOINT rIndex1
              {
                OFFSET -7.75947 0.938293 5.60832
                CHANNELS 3 Zrotation Xrotation Yrotation
                JOINT rIndex2
                {
                  OFFSET -2.54057 -0.884171 1.56538
                  CHANNELS 3 Zrotation Xrotation Yrotation
                  End Site
                  {
                    OFFSET -1.62519 -0.234802 1.16502
                  }
                }
              }
              JOINT rMid1
              {
                OFFSET -8.24714 1.18213 3.41376
                CHANNELS 3 Zrotation Xrotation Yrotation
                JOINT rMid2
                {
                  OFFSET -3.10165 -0.590103 1.0647
                  CHANNELS 3 Zrotation Xrotation Yrotation
                  End Site
                  {
                    OFFSET -2.48547 -0.328903 0.83742
                  }
                }
              }
              JOINT rRing1
              {
                OFFSET -8.82822 0.546677 1.51678
                CHANNELS 3 Zrotation Xrotation Yrotation
                JOINT rRing2
                {
                  OFFSET -2.60934 -0.819778 -0.0198488
                  CHANNELS 3 Zrotation Xrotation Yrotation
                  End Site
                  {
                    OFFSET -2.33842 -0.294052 0.168128
                  }
                }
              }
              JOINT rPinky1
              {
                OFFSET -8.27202 -0.0477905 -0.4584
                CHANNELS 3 Zrotation Xrotation Yrotation
                JOINT rPinky2
                {
                  OFFSET -1.82734 -0.647385 -0.700984
                  CHANNELS 3 Zrotation Xrotation Yrotation
                  End Site
                  {
                    OFFSET -1.69225 -0.51767 -0.607171
                  }
                }
              }
            }
          }
        }
      }
      JOINT lCollar
      {
        OFFSET 2.68224 19.2634 -4.8768
        CHANNELS 3 Zrotation Xrotation Yrotation
        JOINT lShldr
        {
          OFFSET 8.77824 -1.95073 1.46304
          CHANNELS 3 Zrotation Xrotation Yrotation
          JOINT lForeArm
          {
            OFFSET 28.1742 -1.7115 0.48768
            CHANNELS 3 Zrotation Xrotation Yrotation
            JOINT lHand
            {
              OFFSET 22.5879 0.773209 7.07136
              CHANNELS 3 Zrotation Xrotation Yrotation
              JOINT lThumb1
              {
                OFFSET 1.2192 -0.487915 3.41376
                CHANNELS 3 Zrotation Xrotation Yrotation
                JOINT lThumb2
                {
                  OFFSET 3.37035 -0.52449 3.41376
                  CHANNELS 3 Zrotation Xrotation Yrotation
                  End Site
                  {
                    OFFSET 1.78271 -1.18214 1.43049
                  }
                }
              }
              JOINT lIndex1
              {
                OFFSET 7.75947 0.938293 5.60832
                CHANNELS 3 Zrotation Xrotation Yrotation
                JOINT lIndex2
                {
                  OFFSET 2.54057 -0.884171 1.56538
                  CHANNELS 3 Zrotation Xrotation Yrotation
                  End Site
                  {
                    OFFSET 1.62519 -0.234802 1.16502
                  }
                }
              }
              JOINT lMid1
              {
                OFFSET 8.24714 1.18213 3.41376
                CHANNELS 3 Zrotation Xrotation Yrotation
                JOINT lMid2
                {
                  OFFSET 3.10165 -0.590103 1.0647
                  CHANNELS 3 Zrotation Xrotation Yrotation
                  End Site
                  {
                    OFFSET 2.48547 -0.328903 0.83742
                  }
                }
              }
              JOINT lRing1
              {
                OFFSET 8.82822 0.546677 1.51678
                CHANNELS 3 Zrotation Xrotation Yrotation
                JOINT lRing2
                {
                  OFFSET 2.60934 -0.819778 -0.0198488
                  CHANNELS 3 Zrotation Xrotation Yrotation
                  End Site
                  {
                    OFFSET 2.33842 -0.294052 0.168128
                  }
                }
              }
              JOINT lPinky1
              {
                OFFSET 8.27202 -0.0477905 -0.4584
                CHANNELS 3 Zrotation Xrotation Yrotation
                JOINT lPinky2
                {
                  OFFSET 1.82734 -0.647385 -0.700984
                  CHANNELS 3 Zrotation Xrotation Yrotation
                  End Site
                  {
                    OFFSET 1.69225 -0.51767 -0.607171
                  }
                }
              }
            }
          }
        }
      }
    }
  }
  JOINT rButtock
  {
    OFFSET -8.77824 4.35084 1.2192
    CHANNELS 3 Zrotation Xrotation Yrotation
    JOINT rThigh
    {
      OFFSET 0 -1.70687 -2.19456
      CHANNELS 3 Zrotation Xrotation Yrotation
      JOINT rShin
      {
        OFFSET 0 -36.8199 0.73152
        CHANNELS 3 Zrotation Xrotation Yrotation
        JOINT rFoot
        {
          OFFSET 0.73152 -45.1104 -5.12064
          CHANNELS 3 Zrotation Xrotation Yrotation
          End Site
          {
            OFFSET -1.1221 -3.69964 12.103
          }
        }
      }
    }
  }
  JOINT lButtock
  {
    OFFSET 8.77824 4.35084 1.2192
    CHANNELS 3 Zrotation Xrotation Yrotation
    JOINT lThigh
    {
      OFFSET 0 -1.70687 -2.19456
      CHANNELS 3 Zrotation Xrotation Yrotation
      JOINT lShin
      {
        OFFSET 0 -36.8199 0.73152
        CHANNELS 3 Zrotation Xrotation Yrotation
        JOINT lFoot
        {
          OFFSET -0.73152 -45.1104 -5.12064
          CHANNELS 3 Zrotation Xrotation Yrotation
          End Site
          {
            OFFSET 1.1221 -3.69964 12.103
          }
        }
      }
    }
  }
}
MOTION
Frames:	4
Frame Time:	0.03333
8.431732235476375 81.41223788261414 -17.534319777041674 -1.3214482069015503 6.700596332550049 7.6851911544799805 0.49404340982437134 3.5865516662597656 1.728418231010437 1.644425868988037 -7.646728515625 0.34794482588768005 -6.908203601837158 13.004451751708984 -6.306686878204346 8.068069458007812 -24.58016014099121 -9.454267501831055 0.2668991982936859 0.18343132734298706 -0.0400988943874836 0.08813346177339554 0.27964064478874207 0.026355059817433357 -0.019235098734498024 -0.13239175081253052 0.25484320521354675 62.773128509521484 48.17251205444336 2.6428332328796387 -27.362390518188477 -26.633037567138672 61.71821594238281 -0.5169306397438049 -6.250521659851074 -0.872035562992096 -0.35400763154029846 -0.23754481971263885 -0.10337573289871216 -0.20914322137832642 0.05911567062139511 -0.2425854206085205 0.005796396639198065 -0.3479894697666168 -0.37273290753364563 7.9140448570251465 5.723855972290039 0.6953550577163696 -0.006014566402882338 -0.06338087469339371 -0.06144898757338524 2.7234702110290527 1.0232586860656738 0.18542280793190002 0.17868000268936157 0.23287177085876465 0.5138358473777771 10.61663818359375 0.8737840056419373 -0.039043594151735306 -0.08908038586378098 0.07416454702615738 -0.1220797523856163 2.234799861907959 -0.5220517516136169 -0.33438941836357117 -0.16757331788539886 -0.07195968925952911 0.20999445021152496 -65.47160339355469 59.786991119384766 -16.25273895263672 25.93048667907715 -22.521207809448242 -55.965293884277344 -0.1720387488603592 1.415351152420044 0.1339031457901001 -0.028605474159121513 -0.4797445237636566 -0.1538485735654831 -0.3277142345905304 0.19901682436466217 -0.07072456926107407 -0.026534155011177063 0.13240429759025574 -0.29817748069763184 -7.682579517364502 5.475547790527344 -0.30347901582717896 0.10257876664400101 0.16436456143856049 0.16610059142112732 -3.0565314292907715 1.1545475721359253 -0.1424146592617035 -0.11557495594024658 0.2106638252735138 -0.3157351315021515 -10.790604591369629 0.7427294850349426 -0.38241857290267944 0.13056547939777374 0.01716911420226097 -0.03902529925107956 -2.4106271266937256 -1.0142567157745361 0.24658989906311035 -0.19412672519683838 -0.09116342663764954 -0.09522632509469986 -3.781597137451172 -28.993682861328125 -2.67172908782959 -0.9303020238876343 44.57202911376953 0.648505687713623 -5.977043628692627 -6.11072301864624 -20.825496673583984 -0.11754191666841507 0.13441500067710876 -0.39893409609794617 10.211380958557129 -26.324941635131836 -2.4094998836517334 0.497463196516037 41.210113525390625 -0.6759274005889893 2.3542611598968506 -14.688438415527344 6.319547653198242
8.59919732902199 81.59618377685547 -17.143613658845425 -1.2748620510101318 6.482766151428223 7.7457499504089355 0.4158903956413269 3.402096748352051 1.8654942512512207 1.6102925539016724 -7.603867530822754 0.37872499227523804 -6.9236273765563965 12.829865455627441 -6.3222198486328125 8.140233039855957 -23.992618560791016 -9.631349563598633 0.258588045835495 0.21419547498226166 -0.031145714223384857 0.12135995179414749 0.31364497542381287 0.0348178930580616 -0.01990446262061596 -0.12378548830747604 0.23527809977531433 63.492977142333984 47.32085418701172 1.8643453121185303 -27.015209197998047 -25.482221603393555 59.92332077026367 -0.5231437683105469 -5.088922023773193 -0.6980600357055664 -0.3267226219177246 -0.21844267845153809 -0.13797447085380554 -0.21188519895076752 0.04773425683379173 -0.24671930074691772 0.04535704106092453 -0.3198036253452301 -0.3682161271572113 7.95088529586792 5.738226413726807 0.6435672044754028 -0.001919649657793343 -0.060899704694747925 -0.055711887776851654 2.715641975402832 1.0217186212539673 0.1718319207429886 0.14900778234004974 0.24406789243221283 0.5521382689476013 10.638614654541016 0.8889553546905518 0.010330583900213242 -0.12070876359939575 0.07554011791944504 -0.097209632396698 2.291780471801758 -0.5253167748451233 -0.2910460829734802 -0.1881791651248932 -0.04284324869513512 0.1995168924331665 -67.0451889038086 59.322669982910156 -14.292946815490723 25.79597282409668 -22.266260147094727 -55.647613525390625 -0.15944574773311615 1.198263168334961 0.12882009148597717 -0.05018756538629532 -0.44432613253593445 -0.13522790372371674 -0.3169845938682556 0.16756756603717804 -0.05026077479124069 0.00122495845425874 0.1015700176358223 -0.29685962200164795 -7.714775085449219 5.466446876525879 -0.2814616858959198 0.10514411330223083 0.14687669277191162 0.16638846695423126 -3.081829309463501 1.1690031290054321 -0.13715709745883942 -0.13623516261577606 0.1891501247882843 -0.3273178040981293 -10.789316177368164 0.7391077280044556 -0.366208016872406 0.13367098569869995 0.00722236093133688 -0.05071277916431427 -2.423523187637329 -0.9931085109710693 0.2408384084701538 -0.17709186673164368 -0.12359511852264404 -0.09356654435396194 -3.7398881912231445 -28.555904388427734 -2.3625972270965576 -0.9466966390609741 43.979957580566406 0.6947001218795776 -5.940954208374023 -5.980498313903809 -20.668630599975586 -0.13912422955036163 0.08658887445926666 -0.3611065149307251 10.031444549560547 -25.948753356933594 -2.689279794692993 0.5151206254959106 40.941734313964844 -0.7101730704307556 2.436331272125244 -14.73706340789795 6.4681525230407715
8.794227335602045 81.76106214523315 -16.74462156370282 -1.3931870460510254 6.3535237312316895 7.769596576690674 0.5400227308273315 3.282445192337036 2.074040412902832 1.4805012941360474 -7.556332588195801 0.44932252168655396 -6.850805282592773 12.571136474609375 -6.06862735748291 8.088984489440918 -23.423934936523438 -9.394027709960938 0.25288334488868713 0.21077457070350647 -0.01270071417093277 0.1489529311656952 0.33740371465682983 0.047833096235990524 -0.020765850320458412 -0.10589158535003662 0.21935339272022247 64.39263916015625 46.98735809326172 0.7823886275291443 -26.7941951751709 -24.865863800048828 58.93628692626953 -0.5371475219726562 -4.827728748321533 -0.6406718492507935 -0.2817729413509369 -0.19872626662254333 -0.1752341091632843 -0.20891642570495605 0.024114087224006653 -0.2539275288581848 0.06153782829642296 -0.29335224628448486 -0.35240814089775085 7.962471008300781 5.7341413497924805 0.5959095358848572 0.0010585542768239975 -0.0594155453145504 -0.051492463797330856 2.712667942047119 1.025123119354248 0.16108323633670807 0.1005823090672493 0.25145667791366577 0.5642924904823303 10.674184799194336 0.9101165533065796 0.055664803832769394 -0.14361312985420227 0.06020587310194969 -0.0974259227514267 2.3407814502716064 -0.5383602976799011 -0.24536065757274628 -0.18633246421813965 0.006196529138833284 0.15558695793151855 -67.31123352050781 58.40997314453125 -13.941076278686523 25.565547943115234 -21.811538696289062 -55.00405502319336 -0.16475048661231995 1.692584753036499 0.02475772425532341 -0.06813069432973862 -0.4021039307117462 -0.12413441389799118 -0.27538058161735535 0.16223588585853577 -0.031138623133301735 0.008030819706618786 0.08556443452835083 -0.2789832055568695 -7.722412109375 5.455616474151611 -0.25399747490882874 0.11587651073932648 0.11829011887311935 0.1592092663049698 -3.1140007972717285 1.1585458517074585 -0.12944193184375763 -0.1278710812330246 0.1729399561882019 -0.3273310661315918 -10.744405746459961 0.7391358017921448 -0.3182435631752014 0.13911442458629608 0.004223847296088934 -0.052998024970293045 -2.434382915496826 -0.9595868587493896 0.21805234253406525 -0.13306109607219696 -0.16492952406406403 -0.09866973757743835 -3.5888915061950684 -27.796863555908203 -2.0852808952331543 -0.9855658411979675 43.366390228271484 0.7775537371635437 -6.078525543212891 -6.134366989135742 -20.964719772338867 -0.1505967378616333 0.05954805389046669 -0.34545618295669556 10.117753982543945 -26.270227432250977 -2.6821048259735107 0.5653329491615295 40.97340393066406 -0.7246683835983276 2.4216365814208984 -14.60715103149414 6.260855197906494
8.99560374673456 81.86661005020142 -16.359291411936283 -1.5254570245742798 6.416665554046631 7.713277339935303 0.6294892430305481 3.1715190410614014 2.2794740200042725 1.3533685207366943 -7.521603584289551 0.5242494344711304 -6.796651363372803 12.30518913269043 -5.871449947357178 8.049432754516602 -22.92496681213379 -9.146502494812012 0.2255888134241104 0.19806881248950958 0.009754315949976444 0.16359692811965942 0.35490933060646057 0.0428929328918457 -0.03427652269601822 -0.09272432327270508 0.2058420479297638 64.86128997802734 46.622127532958984 0.19378072023391724 -26.584463119506836 -24.352895736694336 58.11066436767578 -0.527812123298645 -4.593008995056152 -0.5981029272079468 -0.23591090738773346 -0.17445454001426697 -0.19660505652427673 -0.19241970777511597 0.019229089841246605 -0.25236648321151733 0.06318328529596329 -0.25253066420555115 -0.33539730310440063 7.967405796051025 5.73098611831665 0.5648152232170105 0.002109268680214882 -0.05325925350189209 -0.052422959357500076 2.7098448276519775 1.0368226766586304 0.17405462265014648 0.04502878710627556 0.26870763301849365 0.5429463982582092 10.682147026062012 0.9246947765350342 0.08724873512983322 -0.16739419102668762 0.06557877361774445 -0.08882773667573929 2.385516881942749 -0.5504976511001587 -0.2018742710351944 -0.15622568130493164 0.02842353656888008 0.11863286793231964 -67.46385955810547 57.660274505615234 -13.698814392089844 25.32994270324707 -21.368017196655273 -54.38393783569336 -0.18632279336452484 2.0731101036071777 -0.06418873369693756 -0.08305807411670685 -0.36305657029151917 -0.11818486452102661 -0.2443932294845581 0.17032061517238617 -0.020958246663212776 0.0035254887770861387 0.0767950639128685 -0.25931045413017273 -7.7363200187683105 5.444461345672607 -0.22523409128189087 0.12153427302837372 0.09572553634643555 0.15762247145175934 -3.1414201259613037 1.1325676441192627 -0.12485359609127045 -0.10792747884988785 0.156188502907753 -0.32059600949287415 -10.698378562927246 0.7247254848480225 -0.25475627183914185 0.13803818821907043 0.012537973001599312 -0.06566467136144638 -2.448808193206787 -0.9267644286155701 0.19546860456466675 -0.0869370698928833 -0.19137194752693176 -0.09614458680152893 -3.4943606853485107 -27.22502326965332 -1.9306918382644653 -1.018627643585205 42.78579330444336 0.8444429636001587 -6.231092929840088 -6.276980400085449 -21.263437271118164 -0.15088173747062683 0.034738071262836456 -0.3309655785560608 10.100855827331543 -26.3958683013916 -2.716026782989502 0.627583920955658 40.851318359375 -0.7546495795249939 2.437373161315918 -14.457284927368164 6.155092716217041
